{
  "accessors": [
    {
      "bufferView": 1,
      "componentType": 5126,
      "count": 4469,
      "max": [
        8.996999740600586,
        -48.64400100708008,
        -48.00299835205078
      ],
      "min": [
        -12.998000144958496,
        -59.869998931884766,
        -85.93499755859375
      ],
      "type": "VEC3"
    },
    {
      "bufferView": 1,
      "byteOffset": 53628,
      "componentType": 5126,
      "count": 4469,
      "max": [
        1.0,
        1.0,
        1.0
      ],
      "min": [
        -1.0,
        -1.0,
        -1.0
      ],
      "type": "VEC3"
    },
    {
      "bufferView": 0,
      "componentType": 5125,
      "count": 13119,
      "type": "SCALAR"
    },
    {
      "bufferView": 1,
      "byteOffset": 107256,
      "componentType": 5126,
      "count": 1068,
      "max": [
        -1.7100000381469727,
        -55.53499984741211,
        -80.80999755859375
      ],
      "min": [
        -2.2899999618530273,
        -56.0890007019043,
        -80.83300018310547
      ],
      "type": "VEC3"
    },
    {
      "bufferView": 1,
      "byteOffset": 120072,
      "componentType": 5126,
      "count": 1068,
      "max": [
        1.0,
        1.0,
        1.0
      ],
      "min": [
        -1.0,
        -1.0,
        -1.0
      ],
      "type": "VEC3"
    },
    {
      "bufferView": 0,
      "byteOffset": 52476,
      "componentType": 5125,
      "count": 2880,
      "type": "SCALAR"
    },
    {
      "bufferView": 1,
      "byteOffset": 132888,
      "componentType": 5126,
      "count": 65532,
      "max": [
        2.299999952316284,
        -41.0,
        -48.757999420166016
      ],
      "min": [
        -11.447999954223633,
        -58.722999572753906,
        -78.41899871826172
      ],
      "type": "VEC3"
    },
    {
      "bufferView": 1,
      "byteOffset": 919272,
      "componentType": 5126,
      "count": 65532,
      "max": [
        1.0,
        1.0,
        1.0
      ],
      "min": [
        -1.0,
        -1.0,
        -1.0
      ],
      "type": "VEC3"
    },
    {
      "bufferView": 0,
      "byteOffset": 63996,
      "componentType": 5125,
      "count": 234888,
      "type": "SCALAR"
    },
    {
      "bufferView": 1,
      "byteOffset": 1705656,
      "componentType": 5126,
      "count": 65532,
      "max": [
        3.2890000343322754,
        -41.00899887084961,
        -48.512001037597656
      ],
      "min": [
        -11.447999954223633,
        -58.47200012207031,
        -78.27200317382813
      ],
      "type": "VEC3"
    },
    {
      "bufferView": 1,
      "byteOffset": 2492040,
      "componentType": 5126,
      "count": 65532,
      "max": [
        1.0,
        1.0,
        1.0
      ],
      "min": [
        -1.0,
        -1.0,
        -1.0
      ],
      "type": "VEC3"
    },
    {
      "bufferView": 0,
      "byteOffset": 1003548,
      "componentType": 5125,
      "count": 196035,
      "type": "SCALAR"
    },
    {
      "bufferView": 1,
      "byteOffset": 3278424,
      "componentType": 5126,
      "count": 16855,
      "max": [
        3.2769999504089355,
        -43.35200119018555,
        -48.768001556396484
      ],
      "min": [
        -11.447999954223633,
        -58.722999572753906,
        -77.71499633789063
      ],
      "type": "VEC3"
    },
    {
      "bufferView": 1,
      "byteOffset": 3480684,
      "componentType": 5126,
      "count": 16855,
      "max": [
        1.0,
        1.0,
        1.0
      ],
      "min": [
        -1.0,
        -1.0,
        -1.0
      ],
      "type": "VEC3"
    },
    {
      "bufferView": 0,
      "byteOffset": 1787688,
      "componentType": 5125,
      "count": 43545,
      "type": "SCALAR"
    },
    {
      "bufferView": 1,
      "byteOffset": 3682944,
      "componentType": 5126,
      "count": 47029,
      "max": [
        8.081999778747559,
        -41.0,
        -48.797000885009766
      ],
      "min": [
        -6.900000095367432,
        -58.17599868774414,
        -86.08799743652344
      ],
      "type": "VEC3"
    },
    {
      "bufferView": 1,
      "byteOffset": 4247292,
      "componentType": 5126,
      "count": 47029,
      "max": [
        1.0,
        1.0,
        1.0
      ],
      "min": [
        -1.0,
        -1.0,
        -1.0
      ],
      "type": "VEC3"
    },
    {
      "bufferView": 0,
      "byteOffset": 1961868,
      "componentType": 5125,
      "count": 144513,
      "type": "SCALAR"
    },
    {
      "bufferView": 1,
      "byteOffset": 4811640,
      "componentType": 5126,
      "count": 16974,
      "max": [
        132.0,
        -0.0,
        100.19770050048828
      ],
      "min": [
        -136.0,
        -64.35700225830078,
        -202.0
      ],
      "type": "VEC3"
    },
    {
      "bufferView": 1,
      "byteOffset": 5015328,
      "componentType": 5126,
      "count": 16974,
      "max": [
        1.0,
        1.0,
        1.0
      ],
      "min": [
        -1.0,
        -1.0,
        -1.0
      ],
      "type": "VEC3"
    },
    {
      "bufferView": 0,
      "byteOffset": 2539920,
      "componentType": 5125,
      "count": 56442,
      "type": "SCALAR"
    },
    {
      "bufferView": 1,
      "byteOffset": 5219016,
      "componentType": 5126,
      "count": 2332,
      "max": [
        4.340000152587891,
        -39.03630065917969,
        138.6959991455078
      ],
      "min": [
        -8.452300071716309,
        -51.91709899902344,
        116.697998046875
      ],
      "type": "VEC3"
    },
    {
      "bufferView": 1,
      "byteOffset": 5247000,
      "componentType": 5126,
      "count": 2332,
      "max": [
        1.0,
        1.0,
        1.0
      ],
      "min": [
        -1.0,
        -1.0,
        -1.0
      ],
      "type": "VEC3"
    },
    {
      "bufferView": 0,
      "byteOffset": 2765688,
      "componentType": 5125,
      "count": 6882,
      "type": "SCALAR"
    },
    {
      "bufferView": 1,
      "byteOffset": 5274984,
      "componentType": 5126,
      "count": 5391,
      "max": [
        8.095000267028809,
        -47.35029983520508,
        -48.78099822998047
      ],
      "min": [
        -6.5960001945495605,
        -58.400001525878906,
        -81.86399841308594
      ],
      "type": "VEC3"
    },
    {
      "bufferView": 1,
      "byteOffset": 5339676,
      "componentType": 5126,
      "count": 5391,
      "max": [
        1.0,
        1.0,
        1.0
      ],
      "min": [
        -1.0,
        -1.0,
        -1.0
      ],
      "type": "VEC3"
    },
    {
      "bufferView": 0,
      "byteOffset": 2793216,
      "componentType": 5125,
      "count": 21504,
      "type": "SCALAR"
    },
    {
      "bufferView": 1,
      "byteOffset": 5404368,
      "componentType": 5126,
      "count": 1149,
      "max": [
        6.431000232696533,
        -47.68000030517578,
        -70.81800079345703
      ],
      "min": [
        6.165999889373779,
        -48.792999267578125,
        -71.99199676513672
      ],
      "type": "VEC3"
    },
    {
      "bufferView": 1,
      "byteOffset": 5418156,
      "componentType": 5126,
      "count": 1149,
      "max": [
        1.0,
        1.0,
        1.0
      ],
      "min": [
        -1.0,
        -1.0,
        -1.0
      ],
      "type": "VEC3"
    },
    {
      "bufferView": 0,
      "byteOffset": 2879232,
      "componentType": 5125,
      "count": 5736,
      "type": "SCALAR"
    },
    {
      "bufferView": 1,
      "byteOffset": 5431944,
      "componentType": 5126,
      "count": 41917,
      "max": [
        6.407299995422363,
        -14.951000213623047,
        60.38199996948242
      ],
      "min": [
        -11.479700088500977,
        -57.45800018310547,
        -81.86399841308594
      ],
      "type": "VEC3"
    },
    {
      "bufferView": 1,
      "byteOffset": 5934948,
      "componentType": 5126,
      "count": 41917,
      "max": [
        1.0,
        1.0,
        1.0
      ],
      "min": [
        -1.0,
        -1.0,
        -1.0
      ],
      "type": "VEC3"
    },
    {
      "bufferView": 0,
      "byteOffset": 2902176,
      "componentType": 5125,
      "count": 108450,
      "type": "SCALAR"
    },
    {
      "bufferView": 1,
      "byteOffset": 6437952,
      "componentType": 5126,
      "count": 2890,
      "max": [
        7.229000091552734,
        -47.352500915527344,
        -71.697998046875
      ],
      "min": [
        6.839000225067139,
        -47.82899856567383,
        -72.2074966430664
      ],
      "type": "VEC3"
    },
    {
      "bufferView": 1,
      "byteOffset": 6472632,
      "componentType": 5126,
      "count": 2890,
      "max": [
        1.0,
        0.99908447265625,
        1.0
      ],
      "min": [
        -1.0,
        -1.0,
        -1.0
      ],
      "type": "VEC3"
    },
    {
      "bufferView": 0,
      "byteOffset": 3335976,
      "componentType": 5125,
      "count": 14709,
      "type": "SCALAR"
    },
    {
      "bufferView": 1,
      "byteOffset": 6507312,
      "componentType": 5126,
      "count": 65532,
      "max": [
        8.399999618530273,
        -14.152000427246094,
        129.09300231933594
      ],
      "min": [
        -22.448999404907227,
        -58.516998291015625,
        -103.99099731445313
      ],
      "type": "VEC3"
    },
    {
      "bufferView": 1,
      "byteOffset": 7293696,
      "componentType": 5126,
      "count": 65532,
      "max": [
        1.0,
        1.0,
        1.0
      ],
      "min": [
        -1.0,
        -1.0,
        -1.0
      ],
      "type": "VEC3"
    },
    {
      "bufferView": 0,
      "byteOffset": 3394812,
      "componentType": 5125,
      "count": 238881,
      "type": "SCALAR"
    },
    {
      "bufferView": 1,
      "byteOffset": 8080080,
      "componentType": 5126,
      "count": 65532,
      "max": [
        32.685001373291016,
        -15.199999809265137,
        128.46099853515625
      ],
      "min": [
        -14.869500160217285,
        -75.9489974975586,
        -103.99099731445313
      ],
      "type": "VEC3"
    },
    {
      "bufferView": 1,
      "byteOffset": 8866464,
      "componentType": 5126,
      "count": 65532,
      "max": [
        1.0,
        1.0,
        1.0
      ],
      "min": [
        -1.0,
        -1.0,
        -1.0
      ],
      "type": "VEC3"
    },
    {
      "bufferView": 0,
      "byteOffset": 4350336,
      "componentType": 5125,
      "count": 218697,
      "type": "SCALAR"
    },
    {
      "bufferView": 1,
      "byteOffset": 9652848,
      "componentType": 5126,
      "count": 12953,
      "max": [
        11.008000373840332,
        -14.152000427246094,
        129.09300231933594
      ],
      "min": [
        -36.78200149536133,
        -75.91799926757813,
        -97.79199981689453
      ],
      "type": "VEC3"
    },
    {
      "bufferView": 1,
      "byteOffset": 9808284,
      "componentType": 5126,
      "count": 12953,
      "max": [
        1.0,
        1.0,
        1.0
      ],
      "min": [
        -1.0,
        -1.0,
        -1.0
      ],
      "type": "VEC3"
    },
    {
      "bufferView": 0,
      "byteOffset": 5225124,
      "componentType": 5125,
      "count": 35259,
      "type": "SCALAR"
    },
    {
      "bufferView": 1,
      "byteOffset": 9963720,
      "componentType": 5126,
      "count": 401,
      "max": [
        7.388999938964844,
        -48.95800018310547,
        -48.06800079345703
      ],
      "min": [
        -12.932999610900879,
        -55.630001068115234,
        -81.85299682617188
      ],
      "type": "VEC3"
    },
    {
      "bufferView": 1,
      "byteOffset": 9968532,
      "componentType": 5126,
      "count": 401,
      "max": [
        1.0,
        1.0,
        1.0
      ],
      "min": [
        -1.0,
        -1.0,
        -1.0
      ],
      "type": "VEC3"
    },
    {
      "bufferView": 0,
      "byteOffset": 5366160,
      "componentType": 5125,
      "count": 669,
      "type": "SCALAR"
    },
    {
      "bufferView": 1,
      "byteOffset": 9973344,
      "componentType": 5126,
      "count": 3910,
      "max": [
        7.420499801635742,
        -41.4547004699707,
        -48.053001403808594
      ],
      "min": [
        -12.947999954223633,
        -55.6619987487793,
        -81.86399841308594
      ],
      "type": "VEC3"
    },
    {
      "bufferView": 1,
      "byteOffset": 10020264,
      "componentType": 5126,
      "count": 3910,
      "max": [
        1.0,
        1.0,
        1.0
      ],
      "min": [
        -1.0,
        -1.0,
        -1.0
      ],
      "type": "VEC3"
    },
    {
      "bufferView": 0,
      "byteOffset": 5368836,
      "componentType": 5125,
      "count": 10350,
      "type": "SCALAR"
    }
  ],
  "asset": {
    "extras": {
      "author": "Ammar D. (https://sketchfab.com/ammardhamiri1)",
      "license": "CC-BY-4.0 (http://creativecommons.org/licenses/by/4.0/)",
      "source": "https://sketchfab.com/3d-models/breda-dm-905-doppio-motore-21aea7b7dd784ccb9e1605e28c9e1c33",
      "title": "Breda DM 90/5 (Doppio motore)"
    },
    "generator": "Sketchfab-12.67.0",
    "version": "2.0"
  },
  "bufferViews": [
    {
      "buffer": 0,
      "byteLength": 5410236,
      "name": "floatBufferViews",
      "target": 34963
    },
    {
      "buffer": 0,
      "byteLength": 10067184,
      "byteOffset": 5410236,
      "byteStride": 12,
      "name": "floatBufferViews",
      "target": 34962
    }
  ],
  "buffers": [
    {
      "byteLength": 15477420,
      "uri": "scene.bin"
    }
  ],
  "materials": [
    {
      "alphaMode": "BLEND",
      "doubleSided": true,
      "name": "color_-1023739142",
      "pbrMetallicRoughness": {
        "baseColorFactor": [
          0.980392,
          0.980392,
          0.980392,
          0.239216
        ],
        "metallicFactor": 0.0
      }
    },
    {
      "alphaMode": "BLEND",
      "doubleSided": true,
      "name": "color_-1035552951",
      "pbrMetallicRoughness": {
        "baseColorFactor": [
          0.27451,
          0.717647,
          0.286275,
          0.239216
        ],
        "metallicFactor": 0.0
      }
    },
    {
      "doubleSided": true,
      "name": "color_10988977",
      "pbrMetallicRoughness": {
        "baseColorFactor": [
          0.654902,
          0.678431,
          0.694118,
          1.0
        ],
        "metallicFactor": 0.0
      }
    },
    {
      "doubleSided": true,
      "name": "color_12568524",
      "pbrMetallicRoughness": {
        "baseColorFactor": [
          0.74902,
          0.780392,
          0.8,
          1.0
        ],
        "metallicFactor": 0.0
      }
    },
    {
      "doubleSided": true,
      "name": "color_14528853",
      "pbrMetallicRoughness": {
        "baseColorFactor": [
          0.866667,
          0.694118,
          0.333333,
          1.0
        ],
        "metallicFactor": 0.0
      }
    },
    {
      "doubleSided": true,
      "name": "color_14541540",
      "pbrMetallicRoughness": {
        "baseColorFactor": [
          0.866667,
          0.886275,
          0.894118,
          1.0
        ],
        "metallicFactor": 0.0
      }
    },
    {
      "doubleSided": true,
      "name": "color_15277357",
      "pbrMetallicRoughness": {
        "baseColorFactor": [
          0.913725,
          0.113725,
          0.176471,
          1.0
        ],
        "metallicFactor": 0.0
      }
    },
    {
      "doubleSided": true,
      "name": "color_15506754",
      "pbrMetallicRoughness": {
        "baseColorFactor": [
          0.92549,
          0.615686,
          0.258824,
          1.0
        ],
        "metallicFactor": 0.0
      }
    },
    {
      "doubleSided": true,
      "name": "color_16448250",
      "pbrMetallicRoughness": {
        "baseColorFactor": [
          0.980392,
          0.980392,
          0.980392,
          1.0
        ],
        "metallicFactor": 0.0
      }
    },
    {
      "doubleSided": true,
      "name": "color_16768282",
      "pbrMetallicRoughness": {
        "baseColorFactor": [
          1.0,
          0.866667,
          0.101961,
          1.0
        ],
        "metallicFactor": 0.0
      }
    },
    {
      "doubleSided": true,
      "name": "color_2829873",
      "pbrMetallicRoughness": {
        "baseColorFactor": [
          0.168627,
          0.180392,
          0.192157,
          1.0
        ],
        "metallicFactor": 0.0
      }
    },
    {
      "doubleSided": true,
      "name": "color_3888547",
      "pbrMetallicRoughness": {
        "baseColorFactor": [
          0.231373,
          0.333333,
          0.639216,
          1.0
        ],
        "metallicFactor": 0.0
      }
    },
    {
      "doubleSided": true,
      "name": "color_6383466",
      "pbrMetallicRoughness": {
        "baseColorFactor": [
          0.380392,
          0.403922,
          0.415686,
          1.0
        ],
        "metallicFactor": 0.0
      }
    }
  ],
  "meshes": [
    {
      "name": "Object_0",
      "primitives": [
        {
          "attributes": {
            "NORMAL": 1,
            "POSITION": 0
          },
          "indices": 2,
          "material": 0,
          "mode": 4
        }
      ]
    },
    {
      "name": "Object_1",
      "primitives": [
        {
          "attributes": {
            "NORMAL": 4,
            "POSITION": 3
          },
          "indices": 5,
          "material": 1,
          "mode": 4
        }
      ]
    },
    {
      "name": "Object_2",
      "primitives": [
        {
          "attributes": {
            "NORMAL": 7,
            "POSITION": 6
          },
          "indices": 8,
          "material": 2,
          "mode": 4
        }
      ]
    },
    {
      "name": "Object_3",
      "primitives": [
        {
          "attributes": {
            "NORMAL": 10,
            "POSITION": 9
          },
          "indices": 11,
          "material": 2,
          "mode": 4
        }
      ]
    },
    {
      "name": "Object_4",
      "primitives": [
        {
          "attributes": {
            "NORMAL": 13,
            "POSITION": 12
          },
          "indices": 14,
          "material": 2,
          "mode": 4
        }
      ]
    },
    {
      "name": "Object_5",
      "primitives": [
        {
          "attributes": {
            "NORMAL": 16,
            "POSITION": 15
          },
          "indices": 17,
          "material": 3,
          "mode": 4
        }
      ]
    },
    {
      "name": "Object_6",
      "primitives": [
        {
          "attributes": {
            "NORMAL": 19,
            "POSITION": 18
          },
          "indices": 20,
          "material": 4,
          "mode": 4
        }
      ]
    },
    {
      "name": "Object_7",
      "primitives": [
        {
          "attributes": {
            "NORMAL": 22,
            "POSITION": 21
          },
          "indices": 23,
          "material": 5,
          "mode": 4
        }
      ]
    },
    {
      "name": "Object_8",
      "primitives": [
        {
          "attributes": {
            "NORMAL": 25,
            "POSITION": 24
          },
          "indices": 26,
          "material": 6,
          "mode": 4
        }
      ]
    },
    {
      "name": "Object_9",
      "primitives": [
        {
          "attributes": {
            "NORMAL": 28,
            "POSITION": 27
          },
          "indices": 29,
          "material": 7,
          "mode": 4
        }
      ]
    },
    {
      "name": "Object_10",
      "primitives": [
        {
          "attributes": {
            "NORMAL": 31,
            "POSITION": 30
          },
          "indices": 32,
          "material": 8,
          "mode": 4
        }
      ]
    },
    {
      "name": "Object_11",
      "primitives": [
        {
          "attributes": {
            "NORMAL": 34,
            "POSITION": 33
          },
          "indices": 35,
          "material": 9,
          "mode": 4
        }
      ]
    },
    {
      "name": "Object_12",
      "primitives": [
        {
          "attributes": {
            "NORMAL": 37,
            "POSITION": 36
          },
          "indices": 38,
          "material": 10,
          "mode": 4
        }
      ]
    },
    {
      "name": "Object_13",
      "primitives": [
        {
          "attributes": {
            "NORMAL": 40,
            "POSITION": 39
          },
          "indices": 41,
          "material": 10,
          "mode": 4
        }
      ]
    },
    {
      "name": "Object_14",
      "primitives": [
        {
          "attributes": {
            "NORMAL": 43,
            "POSITION": 42
          },
          "indices": 44,
          "material": 10,
          "mode": 4
        }
      ]
    },
    {
      "name": "Object_15",
      "primitives": [
        {
          "attributes": {
            "NORMAL": 46,
            "POSITION": 45
          },
          "indices": 47,
          "material": 11,
          "mode": 4
        }
      ]
    },
    {
      "name": "Object_16",
      "primitives": [
        {
          "attributes": {
            "NORMAL": 49,
            "POSITION": 48
          },
          "indices": 50,
          "material": 12,
          "mode": 4
        }
      ]
    }
  ],
  "nodes": [
    {
      "children": [
        1
      ],
      "matrix": [
        1.0,
        -4.8033446892643715e-32,
        1.6081226229577292e-16,
        0.0,
        1.232595164407831e-32,
        -1.0,
        -4.440892098500626e-16,
        0.0,
        1.6081226229577292e-16,
        4.440892098500626e-16,
        -1.0,
        0.0,
        4.884981308350689e-15,
        -69.62649536132813,
        6.322498321533188,
        1.0
      ],
      "name": "Sketchfab_model"
    },
    {
      "children": [
        2,
        3,
        4,
        5,
        6,
        7,
        8,
        9,
        10,
        11,
        12,
        13,
        14,
        15,
        16,
        17,
        18
      ],
      "name": "tinker.obj.cleaner.materialmerger.gles"
    },
    {
      "mesh": 0,
      "name": "Object_2"
    },
    {
      "mesh": 1,
      "name": "Object_3"
    },
    {
      "mesh": 2,
      "name": "Object_4"
    },
    {
      "mesh": 3,
      "name": "Object_5"
    },
    {
      "mesh": 4,
      "name": "Object_6"
    },
    {
      "mesh": 5,
      "name": "Object_7"
    },
    {
      "mesh": 6,
      "name": "Object_8"
    },
    {
      "mesh": 7,
      "name": "Object_9"
    },
    {
      "mesh": 8,
      "name": "Object_10"
    },
    {
      "mesh": 9,
      "name": "Object_11"
    },
    {
      "mesh": 10,
      "name": "Object_12"
    },
    {
      "mesh": 11,
      "name": "Object_13"
    },
    {
      "mesh": 12,
      "name": "Object_14"
    },
    {
      "mesh": 13,
      "name": "Object_15"
    },
    {
      "mesh": 14,
      "name": "Object_16"
    },
    {
      "mesh": 15,
      "name": "Object_17"
    },
    {
      "mesh": 16,
      "name": "Object_18"
    }
  ],
  "scene": 0,
  "scenes": [
    {
      "name": "Sketchfab_Scene",
      "nodes": [
        0
      ]
    }
  ]
}
